<svg width="29" height="29" viewBox="0 0 29 29" fill="none" xmlns="http://www.w3.org/2000/svg">
<path d="M10 26C10.5523 26 11 25.5523 11 25C11 24.4477 10.5523 24 10 24C9.44772 24 9 24.4477 9 25C9 25.5523 9.44772 26 10 26Z" stroke="white" stroke-width="2" stroke-linecap="round" stroke-linejoin="round"/>
<path d="M22 26C22.5523 26 23 25.5523 23 25C23 24.4477 22.5523 24 22 24C21.4477 24 21 24.4477 21 25C21 25.5523 21.4477 26 22 26Z" stroke="white" stroke-width="2" stroke-linecap="round" stroke-linejoin="round"/>
<path d="M1 4H5.36364L8.28727 18.2823C8.38703 18.7734 8.66026 19.2145 9.05914 19.5285C9.45802 19.8424 9.95713 20.0092 10.4691 19.9996H21.0727C21.5847 20.0092 22.0838 19.8424 22.4827 19.5285C22.8816 19.2145 23.1548 18.7734 23.2545 18.2823L25 9.3332H6.45455" stroke="white" stroke-width="2" stroke-linecap="round" stroke-linejoin="round"/>
</svg>
